<?xml version="1.0" encoding="UTF-8"?>
<svg width="25px" height="15px" viewBox="0 0 25 15" version="1.1" xmlns="http://www.w3.org/2000/svg" xmlns:xlink="http://www.w3.org/1999/xlink">
    <!-- Generator: Sketch 46.2 (44496) - http://www.bohemiancoding.com/sketch -->
    <title>icon/arrow-down-blue</title>
    <desc>Created with Sketch.</desc>
    <defs></defs>
    <g id="Style-guide" stroke="none" stroke-width="1" fill="none" fill-rule="evenodd">
        <g id="UI-Icons" transform="translate(-120.000000, -1265.000000)" fill="#146AFF">
            <g id="Stacked-Group" transform="translate(50.000000, 50.000000)">
                <g id="Stacked-Group-5-Copy" transform="translate(0.000000, 1210.000000)">
                    <g id="icon/arrow-down-blue" transform="translate(70.000000, 0.000000)">
                        <path d="M19.2677026,20.7322696 C20.2443584,21.7070736 20.2443584,23.2915005 19.2677026,24.2677859 C18.7788191,24.7555583 18.139567,25 17.4999444,25 C16.8603219,25 16.2210698,24.7555583 15.7321863,24.2677859 L5.73229742,14.267897 C4.7556416,13.293093 4.7556416,11.7086662 5.73229742,10.7323808 L15.7321863,0.732491861 C16.7084718,-0.244163954 18.2914171,-0.244163954 19.2677026,0.732491861 C20.2443584,1.70729584 20.2443584,3.29172268 19.2677026,4.26800813 L11.0359422,12.5001389 L19.2677026,20.7322696 Z" transform="translate(12.500000, 12.500000) rotate(270.000000) translate(-12.500000, -12.500000) "></path>
                    </g>
                </g>
            </g>
        </g>
    </g>
</svg>