<?xml version="1.0" encoding="utf-8"?>
<!-- Generator: Adobe Illustrator 22.0.1, SVG Export Plug-In . SVG Version: 6.00 Build 0)  -->
<svg version="1.1" id="Layer_1" xmlns="http://www.w3.org/2000/svg" xmlns:xlink="http://www.w3.org/1999/xlink" x="0px" y="0px"
	 viewBox="0 0 15 15" style="enable-background:new 0 0 15 15;" xml:space="preserve">
<style type="text/css">
	.st0{fill:#FFFFFF;}
	.st1{fill:#F3336C;}
</style>
<g id="Page-1">
	<g id="icon_x2F_clock-red">
		<circle id="Oval-7" class="st0" cx="7.5" cy="7.5" r="6.9"/>
		<g id="Group">
			<path id="Shape" class="st1" d="M7.5,0C3.4,0,0,3.4,0,7.5S3.4,15,7.5,15S15,11.6,15,7.5S11.6,0,7.5,0L7.5,0z M7.5,13.5
				c-3.3,0-6-2.7-6-6c0-3.3,2.7-6,6-6c3.3,0,6,2.7,6,6C13.5,10.8,10.8,13.5,7.5,13.5L7.5,13.5z"/>
			<path id="Shape-Copy" class="st1" d="M7.4,9.3C7,9.3,6.6,8.9,6.6,8.4V4.4c0-0.5,0.3-0.9,0.8-0.9c0.4,0,0.7,0.4,0.7,0.8
				c0,0,0,0,0,0V3.5c0,0,0,1,0,1v1.8c0,0.6,0,2.2,0,2.2C8.1,8.9,7.7,9.3,7.4,9.3z"/>
			<path id="Shape_1_" class="st1" d="M6.7,8.4C6.9,8,7.4,7.8,7.8,7.9l2.3,0.9c0.5,0.1,0.7,0.7,0.6,1c-0.1,0.3-0.6,0.6-1.1,0.5
				L7.4,9.4C6.9,9.3,6.6,8.8,6.7,8.4z"/>
		</g>
	</g>
</g>
</svg>
