<?xml version="1.0" encoding="UTF-8"?>
<svg width="20px" height="20px" viewBox="0 0 20 20" version="1.1" xmlns="http://www.w3.org/2000/svg" xmlns:xlink="http://www.w3.org/1999/xlink">
    <!-- Generator: Sketch 40.2 (33826) - http://www.bohemiancoding.com/sketch -->
    <title>icon/copy</title>
    <desc>Created with Sketch.</desc>
    <defs></defs>
    <g id="Share-assignment-modal'" stroke="none" stroke-width="1" fill="none" fill-rule="evenodd">
        <g id="Share-assignment-modal" transform="translate(-188.000000, -218.000000)" fill="#FFFFFF">
            <g id="Group-3" transform="translate(66.000000, 207.000000)">
                <g id="button/medium-primary-copy" transform="translate(112.000000, 0.000000)">
                    <g id="Group">
                        <g id="icon/copy" transform="translate(10.000000, 11.000000)">
                            <path d="M14.9605333,4.04693333 L1.07093333,4.04693333 C0.522933333,4.04693333 0.0781333333,4.49173333 0.0781333333,5.03946667 L0.0781333333,18.9301333 C0.0781333333,19.4770667 0.524,19.9218667 1.06986667,19.9218667 L14.9605333,19.9218667 C15.5072,19.9218667 15.952,19.476 15.952,18.9301333 L15.952,5.03946667 C15.9530667,4.49173333 15.5082667,4.04693333 14.9605333,4.04693333 L14.9605333,4.04693333 Z M13.9688,17.9376 L2.0624,17.9376 L2.0624,6.0312 L13.9688,6.0312 L13.9688,17.9376 Z" id="Fill-1"></path>
                            <path d="M18.9290667,0.0781333333 L6.0312,0.0781333333 C5.48426667,0.0781333333 5.03946667,0.524 5.03946667,1.06986667 C5.03946667,1.61653333 5.48533333,2.06133333 6.0312,2.06133333 L17.9376,2.06133333 L17.9376,13.9677333 C17.9376,14.5146667 18.3834667,14.9594667 18.9290667,14.9594667 C19.476,14.9594667 19.9208,14.5136 19.9208,13.9677333 L19.9208,1.07093333 C19.9218667,0.522933333 19.4770667,0.0781333333 18.9290667,0.0781333333 L18.9290667,0.0781333333 Z" id="Fill-2"></path>
                            <path d="M5.03946667,12.9770667 L7.024,12.9770667 L7.024,14.9605333 C7.024,15.5072 7.46986667,15.952 8.01573333,15.952 C8.5624,15.952 9.0072,15.5061333 9.0072,14.9605333 L9.0072,12.976 L10.9917333,12.976 C11.5386667,12.976 11.9834667,12.5301333 11.9834667,11.9842667 C11.9834667,11.4376 11.5376,10.9928 10.9917333,10.9928 L9.0072,10.9928 L9.0072,9.00826667 C9.0072,8.46133333 8.56133333,8.01653333 8.01573333,8.01653333 C7.4688,8.01653333 7.024,8.4624 7.024,9.00826667 L7.024,10.9928 L5.03946667,10.9928 C4.4928,10.9928 4.048,11.4386667 4.048,11.9842667 C4.04693333,12.5312 4.49173333,12.9770667 5.03946667,12.9770667 L5.03946667,12.9770667 Z" id="Fill-3"></path>
                        </g>
                    </g>
                </g>
            </g>
        </g>
    </g>
</svg>