<?xml version="1.0" encoding="utf-8"?>
<!-- Generator: Adobe Illustrator 22.0.1, SVG Export Plug-In . SVG Version: 6.00 Build 0)  -->
<svg version="1.1" id="Layer_1" xmlns="http://www.w3.org/2000/svg" xmlns:xlink="http://www.w3.org/1999/xlink" x="0px" y="0px"
	 viewBox="0 0 22.1 25" style="enable-background:new 0 0 22.1 25;" xml:space="preserve">
<style type="text/css">
	.st0{fill-rule:evenodd;clip-rule:evenodd;fill:#146AFF;}
	.st1{fill:#146AFF;}
</style>
<path class="st0" d="M19.2,23.4H2.9c-0.7,0-1.4-0.7-1.4-1.5V11.2h19v10.7C20.6,22.7,20,23.4,19.2,23.4z M2.9,5.1h3v1.2
	c0,0.5,0.3,0.9,0.8,0.9c0.4,0,0.8-0.4,0.8-0.9V5.1h7.2v1.2c0,0.5,0.3,0.9,0.8,0.9c0.4,0,0.8-0.4,0.8-0.9V5.1h3
	c0.7,0,1.4,0.7,1.4,1.5v2.9h-19V6.6C1.6,5.7,2.2,5.1,2.9,5.1z M22.1,6.1v16.3c-0.2,1.3-1,2.3-2.1,2.6H2.1C0.9,24.6,0,23.4,0,21.9
	V6.6c0-1.8,1.3-3.2,2.9-3.2h3V0.9C5.9,0.4,6.3,0,6.7,0c0.4,0,0.8,0.4,0.8,0.9v2.5h7.2V0.9C14.7,0.4,15,0,15.5,0
	c0.4,0,0.8,0.4,0.8,0.9v2.5h3C20.7,3.3,21.9,4.5,22.1,6.1z"/>
<rect x="3.3" y="13" class="st1" width="2.2" height="2.2"/>
<rect x="3.3" y="16.3" class="st1" width="2.2" height="2.2"/>
<rect x="6.5" y="13" class="st1" width="2.2" height="2.2"/>
<rect x="6.5" y="16.3" class="st1" width="2.2" height="2.2"/>
<rect x="9.8" y="13" class="st1" width="2.2" height="2.2"/>
<rect x="9.8" y="16.3" class="st1" width="2.2" height="2.2"/>
<rect x="13" y="13" class="st1" width="2.2" height="2.2"/>
<rect x="13" y="16.3" class="st1" width="2.2" height="2.2"/>
<rect x="16.3" y="13" class="st1" width="2.2" height="2.2"/>
<rect x="16.3" y="16.3" class="st1" width="2.2" height="2.2"/>
<rect x="3.3" y="19.6" class="st1" width="2.2" height="2.2"/>
<rect x="6.5" y="19.6" class="st1" width="2.2" height="2.2"/>
<rect x="9.8" y="19.6" class="st1" width="2.2" height="2.2"/>
<rect x="13" y="19.6" class="st1" width="2.2" height="2.2"/>
<rect x="16.3" y="19.6" class="st1" width="2.2" height="2.2"/>
</svg>
