<?xml version="1.0" encoding="UTF-8"?>
<svg width="109px" height="24px" viewBox="0 0 109 24" version="1.1" xmlns="http://www.w3.org/2000/svg" xmlns:xlink="http://www.w3.org/1999/xlink">
    <!-- Generator: Sketch 46.1 (44463) - http://www.bohemiancoding.com/sketch -->
    <title>logo</title>
    <desc>Created with Sketch.</desc>
    <defs></defs>
    <g id="Symbols" stroke="none" stroke-width="1" fill="none" fill-rule="evenodd">
        <g id="headers/logged-out/normal" transform="translate(-15.000000, -29.000000)">
            <g id="headers/teacher/normal-copy">
                <g id="logo" transform="translate(15.000000, 29.000000)">
                    <path d="M4.29012,6.0299 L4.29012,8.0777 L4.35527,8.0777 C5.29812,6.3551 6.92278,5.5749 8.808,5.5749 C11.60327,5.5749 13.26073,7.102 13.26073,10.5473 L13.26073,23.5161 L8.77567,23.5161 L8.77567,11.4578 C8.77567,9.7024 8.19037,9.0201 6.85812,9.0201 C5.32996,9.0201 4.48506,9.9629 4.48506,11.9123 L4.48506,23.5161 L0,23.5161 L0,6.0299 L4.29012,6.0299 Z" id="Mask" fill="#F3336C"></path>
                    <path d="M22.55853,20.9158 C24.37861,20.9158 24.96343,19.1285 24.96343,14.7727 C24.96343,10.4175 24.37861,8.6302 22.55853,8.6302 C20.34857,8.6302 20.15363,11.1977 20.15363,14.7727 C20.15363,18.3482 20.34857,20.9158 22.55853,20.9158 Z M22.55853,5.5749 C27.95412,5.4774 29.44898,8.6953 29.44898,14.7727 C29.44898,20.7531 27.69404,23.9706 22.55853,23.9706 C17.16294,24.0686 15.66808,20.8506 15.66808,14.7727 C15.66808,8.7923 17.42302,5.5749 22.55853,5.5749 Z" id="Mask" fill="#F3336C"></path>
                    <path d="M32.2462,6.2571 L34.19657,6.2571 L34.19657,8.9549 L34.26122,8.9549 C35.00865,7.0374 36.60147,5.8673 38.61698,5.8673 C38.84424,5.8673 39.07151,5.9001 39.29927,5.9647 L39.29927,7.9151 C38.97453,7.85 38.64931,7.8176 38.3569,7.8176 C36.21159,7.8176 34.19657,9.3776 34.19657,12.7254 L34.19657,23.5161 L32.2462,23.5161 L32.2462,6.2571 Z" id="Mask" fill="#333333"></path>
                    <path d="M49.99396,13.3425 C49.92882,9.0524 48.72588,7.4924 46.32098,7.4924 C43.91608,7.4924 42.71314,9.0524 42.64849,13.3425 L49.99396,13.3425 Z M51.91151,17.7958 C51.6191,21.4682 49.60359,23.9064 46.3538,23.9064 C42.71314,23.9064 40.56833,21.3708 40.56833,14.8707 C40.56833,8.8898 42.71314,5.8673 46.51592,5.8673 C50.35151,5.8673 52.07412,8.5004 52.07412,14.2531 L52.07412,14.9682 L42.64849,14.9682 L42.64849,15.7807 C42.64849,20.7531 44.40343,22.2808 46.32098,22.2808 C48.36882,22.2808 49.63641,20.8183 49.96114,17.7958 L51.91151,17.7958 Z" id="Clip-15" fill="#333333"></path>
                    <path d="M60.26596,22.2808 C62.24865,22.2808 64.03641,21.2733 64.03641,14.8707 C64.03641,8.5004 62.24865,7.4924 60.26596,7.4924 C58.31559,7.4924 56.496,8.5004 56.496,14.8707 C56.496,21.2733 58.31559,22.2808 60.26596,22.2808 Z M64.23135,20.6557 L64.1662,20.6557 C63.64653,22.6389 61.98906,23.9064 59.94122,23.9064 C56.13894,23.9064 54.41584,20.8506 54.41584,14.8707 C54.41584,8.9226 56.13894,5.8673 59.94122,5.8673 C62.08604,5.8673 63.54857,7.0374 63.97078,8.8575 L64.03641,8.8575 L64.03641,0.3096 L65.98629,0.3096 L65.98629,23.5161 L64.23135,23.5161 L64.23135,20.6557 Z" id="Clip-18" fill="#333333"></path>
                    <path d="M69.33649,6.0299 L73.82155,6.0299 L73.82155,23.5161 L69.33649,23.5161 L69.33649,6.0299 Z M69.33649,0.049 L73.82155,0.049 L73.82155,3.8841 L69.33649,3.8841 L69.33649,0.049 Z" id="Clip-21" fill="#F3336C"></path>
                    <path d="M76.97486,6.0299 L81.2655,6.0299 L81.2655,8.0777 L81.3301,8.0777 C82.2735,6.3551 83.8981,5.5749 85.7829,5.5749 C88.5781,5.5749 90.2361,7.102 90.2361,10.5473 L90.2361,23.5161 L85.7505,23.5161 L85.7505,11.4578 C85.7505,9.7024 85.1652,9.0201 83.833,9.0201 C82.3058,9.0201 81.4604,9.9629 81.4604,11.9123 L81.4604,23.5161 L76.97486,23.5161 L76.97486,6.0299 Z" id="Clip-24" fill="#F3336C"></path>
                    <polygon id="Clip-27" fill="#F3336C" points="97.8759 0.3096 97.8759 12.5628 97.9411 12.5628 102.4589 6.0299 107.399 6.0299 102.3615 12.9203 108.1469 23.5161 103.2064 23.5161 99.4682 16.3332 97.8759 18.4134 97.8759 23.5161 93.3909 23.5161 93.3909 0.3096"></polygon>
                </g>
            </g>
        </g>
    </g>
</svg>