<?xml version="1.0" encoding="utf-8"?>
<!-- Generator: Adobe Illustrator 21.1.0, SVG Export Plug-In . SVG Version: 6.00 Build 0)  -->
<svg version="1.1" id="Layer_1" xmlns="http://www.w3.org/2000/svg" xmlns:xlink="http://www.w3.org/1999/xlink" x="0px" y="0px"
	 viewBox="0 0 18 18" style="enable-background:new 0 0 18 18;" xml:space="preserve">
<style type="text/css">
	.st0{fill:#146AFF;}
</style>
<title>icon/person-blue</title>
<desc>Created with Sketch.</desc>
<path class="st0" d="M8.6,9.4c2.6,0,4.7-2.1,4.7-4.7c0-2.6-2.1-4.7-4.7-4.7C6,0,3.9,2.1,3.9,4.7C3.9,7.3,6,9.4,8.6,9.4L8.6,9.4z
	 M0,17.6C0,17.8,0.2,18,0.4,18h16.4c0.2,0,0.4-0.2,0.4-0.4v-0.8c0-3.2-2.1-5.9-6.3-5.9H6.3C2.1,11,0,13.7,0,16.8V17.6z"/>
</svg>
