<?xml version="1.0" encoding="UTF-8"?>
<svg width="19px" height="26px" viewBox="0 0 19 26" version="1.1" xmlns="http://www.w3.org/2000/svg" xmlns:xlink="http://www.w3.org/1999/xlink">
    <!-- Generator: Sketch 48.2 (47327) - http://www.bohemiancoding.com/sketch -->
    <title>icon_premium_locked</title>
    <desc>Created with Sketch.</desc>
    <defs></defs>
    <g id="Page-1" stroke="none" stroke-width="1" fill="none" fill-rule="evenodd">
        <g id="icon_premium_locked" transform="translate(0.880000, 0.257143)">
            <path d="M15.1703507,11.7613357 L15.1703507,7.54281617 C15.1703507,4.09252936 12.4022155,1.28571429 9.00015151,1.28571429 C5.59748152,1.28571429 2.82964933,4.09252936 2.82964933,7.54281617 L2.82964933,11.7613357 L1.947846,11.7613357 C0.872409555,11.7613357 0,12.6451106 0,13.7356938 L0,23.7399276 C0,24.8305108 0.872409555,25.7142857 1.947846,25.7142857 L16.0527601,25.7142857 C17.1281965,25.7142857 18,24.8305108 18,23.7399276 L18,13.7360011 C18,12.6454179 17.1281965,11.7613357 16.0527601,11.7613357 L15.1703507,11.7613357 Z M9.59559603,19.3582355 L9.59559603,21.7044182 C9.59559603,22.0384458 9.32863083,22.3088637 9.00015151,22.3088637 C8.67106614,22.3088637 8.40410094,22.0384458 8.40410094,21.7044182 L8.40410094,19.3582355 C7.73047592,19.1108645 7.24836282,18.4584813 7.24836282,17.689634 C7.24836282,16.7090617 8.03259204,15.9131726 9.00015151,15.9131726 C9.96680191,15.9131726 10.7522432,16.7090617 10.7522432,17.689634 C10.7522432,18.4594032 10.2692211,19.1117864 9.59559603,19.3582355 L9.59559603,19.3582355 Z M12.8337233,11.7613357 L5.16627666,11.7613357 L5.16627666,7.54281617 C5.16627666,5.39913958 6.88624771,3.654944 9.00015151,3.654944 C11.1137523,3.654944 12.8337233,5.39913958 12.8337233,7.54281617 L12.8337233,11.7613357 L12.8337233,11.7613357 Z" id="icon_premium_locked-copy" fill="#E68900"></path>
            <rect id="Rectangle-9" fill="#FFFFFF" x="1.28571429" y="14.1428571" width="14.1428571" height="7.71428571"></rect>
            <path d="M15.1703507,10.4756214 L15.1703507,6.25710188 C15.1703507,2.80681508 12.4022155,0 9.00015151,0 C5.59748152,0 2.82964933,2.80681508 2.82964933,6.25710188 L2.82964933,10.4756214 L1.947846,10.4756214 C0.872409555,10.4756214 0,11.3593963 0,12.4499795 L0,22.4542133 C0,23.5447965 0.872409555,24.4285714 1.947846,24.4285714 L16.0527601,24.4285714 C17.1281965,24.4285714 18,23.5447965 18,22.4542133 L18,12.4502868 C18,11.3597036 17.1281965,10.4756214 16.0527601,10.4756214 L15.1703507,10.4756214 Z M9.59559603,18.0725212 L9.59559603,20.4187039 C9.59559603,20.7527315 9.32863083,21.0231494 9.00015151,21.0231494 C8.67106614,21.0231494 8.40410094,20.7527315 8.40410094,20.4187039 L8.40410094,18.0725212 C7.73047592,17.8251502 7.24836282,17.172767 7.24836282,16.4039197 C7.24836282,15.4233474 8.03259204,14.6274583 9.00015151,14.6274583 C9.96680191,14.6274583 10.7522432,15.4233474 10.7522432,16.4039197 C10.7522432,17.1736889 10.2692211,17.8260721 9.59559603,18.0725212 L9.59559603,18.0725212 Z M12.8337233,10.4756214 L5.16627666,10.4756214 L5.16627666,6.25710188 C5.16627666,4.11342529 6.88624771,2.36922972 9.00015151,2.36922972 C11.1137523,2.36922972 12.8337233,4.11342529 12.8337233,6.25710188 L12.8337233,10.4756214 L12.8337233,10.4756214 Z" fill="#FEC900"></path>
        </g>
    </g>
</svg>