<?xml version="1.0" encoding="utf-8"?>
<!-- Generator: Adobe Illustrator 21.1.0, SVG Export Plug-In . SVG Version: 6.00 Build 0)  -->
<svg version="1.1" id="Layer_1" xmlns="http://www.w3.org/2000/svg" xmlns:xlink="http://www.w3.org/1999/xlink" x="0px" y="0px"
	 viewBox="0 0 20 16" style="enable-background:new 0 0 20 16;" xml:space="preserve">
<style type="text/css">
	.st0{fill:#146AFF;}
</style>
<title>icon/twitter-blue</title>
<desc>Created with Sketch.</desc>
<path class="st0" d="M17.9,4.5c0,5.3-4.1,11.4-11.6,11.4c-2.3,0-4.5-0.7-6.3-1.8c0.3,0,0.6,0,1,0c1.9,0,3.7-0.6,5.1-1.7
	c-1.8,0-3.3-1.2-3.8-2.8c0.3,0,0.5,0.1,0.8,0.1c0.4,0,0.7,0,1.1-0.1c-1.9-0.4-3.3-2-3.3-3.9v0C1.4,5.9,2,6.1,2.7,6.1
	c-1.1-0.7-1.8-2-1.8-3.4c0-0.7,0.2-1.4,0.6-2c2,2.4,5,4,8.4,4.2C9.7,4.6,9.7,4.3,9.7,4c0-2.2,1.8-4,4.1-4c1.2,0,2.2,0.5,3,1.3
	c0.9-0.2,1.8-0.5,2.6-1c-0.3,0.9-0.9,1.7-1.8,2.2c0.8-0.1,1.6-0.3,2.3-0.6c-0.6,0.8-1.3,1.5-2,2.1C17.9,4.1,17.9,4.3,17.9,4.5z"/>
</svg>
