<?xml version="1.0" encoding="UTF-8"?>
<svg width="18px" height="18px" viewBox="0 0 25 25" version="1.1" xmlns="http://www.w3.org/2000/svg" xmlns:xlink="http://www.w3.org/1999/xlink">
    <!-- Generator: Sketch 46.2 (44496) - http://www.bohemiancoding.com/sketch -->
    <title>icon/x-blue</title>
    <desc>Created with Sketch.</desc>
    <defs></defs>
    <g id="Style-guide" stroke="none" stroke-width="1" fill="none" fill-rule="evenodd">
        <g id="UI-Icons" transform="translate(-50.000000, -888.000000)" fill="#146AFF">
            <g id="Stacked-Group" transform="translate(50.000000, 50.000000)">
                <g id="Stacked-Group-3" transform="translate(0.000000, 838.000000)">
                    <g id="icon/x-blue">
                        <path d="M1.0665529,6.01535836 C-0.355517634,4.59328783 -0.355517634,2.48862344 1.0665529,1.0665529 C2.48862344,-0.355517634 4.59328783,-0.355517634 6.01535836,1.0665529 L12.3862344,7.4374289 L18.7571104,1.0665529 C20.1791809,-0.355517634 22.539818,-0.355517634 23.9334471,1.0665529 C25.3555176,2.48862344 25.3555176,4.84926052 23.9334471,6.24288965 L17.5625711,12.6137656 L23.9334471,18.9846416 C25.3555176,20.4067122 25.3555176,22.5113766 23.9334471,23.9334471 C22.5113766,25.3555176 20.4067122,25.3555176 18.9846416,23.9334471 L12.6137656,17.5625711 L6.24288965,23.9334471 C4.82081911,25.3555176 2.46018203,25.3555176 1.0665529,23.9334471 C-0.355517634,22.5113766 -0.355517634,20.1507395 1.0665529,18.7571104 L7.4374289,12.6137656 L1.0665529,6.01535836 Z"></path>
                    </g>
                </g>
            </g>
        </g>
    </g>
</svg>
