<?xml version="1.0" encoding="utf-8"?>
<!-- Generator: Adobe Illustrator 21.1.0, SVG Export Plug-In . SVG Version: 6.00 Build 0)  -->
<svg version="1.1" id="Layer_1" xmlns="http://www.w3.org/2000/svg" xmlns:xlink="http://www.w3.org/1999/xlink" x="0px" y="0px"
	 viewBox="0 0 13 12.9" style="enable-background:new 0 0 13 12.9;" xml:space="preserve">
<style type="text/css">
	.st0{fill:#FFFFFF;}
</style>
<title>x-white</title>
<desc>Created with Sketch.</desc>
<path id="x-white" class="st0" d="M0.6,3c-0.8-0.7-0.8-1.8,0-2.5c0.7-0.7,1.8-0.7,2.6,0l3.3,3.3l3.3-3.3c0.7-0.7,2-0.7,2.7,0
	s0.7,2,0,2.7L9.1,6.5l3.3,3.3c0.7,0.7,0.7,1.8,0,2.6c-0.7,0.7-1.8,0.7-2.6,0L6.6,9.1l-3.3,3.3c-0.7,0.7-2,0.7-2.7,0s-0.7-2,0-2.7
	l3.3-3.2L0.6,3z"/>
</svg>
