<?xml version="1.0" encoding="UTF-8"?><svg id="Layer_2" xmlns="http://www.w3.org/2000/svg" viewBox="0 0 1032.27 1123.34"><defs><style>.cls-1{fill:#baa2e0;}.cls-2{fill:#542ba3;}</style></defs><g><path class="cls-1" d="m168.53,37h755.44c39.35,0,71.29,31.94,71.29,71.29v908.03c0,38.65-31.38,70.03-70.03,70.03H168.53c-38.65,0-70.03-31.38-70.03-70.03V107.03c0-38.65,31.38-70.03,70.03-70.03Z"/><path class="cls-2" d="m925.24,1123.34H168.53c-59.02,0-107.03-48.01-107.03-107.03V107.03C61.51,48.01,109.52,0,168.53,0h755.44c59.71,0,108.29,48.58,108.29,108.29v908.02c0,59.02-48.01,107.03-107.03,107.03ZM168.53,74c-18.21,0-33.03,14.82-33.03,33.03v909.29c0,18.21,14.82,33.03,33.03,33.03h756.7c18.21,0,33.03-14.82,33.03-33.03V108.29c0-18.91-15.38-34.29-34.29-34.29H168.53Z"/></g><g><path class="cls-2" d="m152.67,181.93H37c-20.43,0-37-16.57-37-37s16.57-37,37-37h115.67c20.43,0,37,16.57,37,37s-16.57,37-37,37Z"/><path class="cls-2" d="m152.67,347.93H37c-20.43,0-37-16.57-37-37s16.57-37,37-37h115.67c20.43,0,37,16.57,37,37s-16.57,37-37,37Z"/><path class="cls-2" d="m152.67,513.93H37c-20.43,0-37-16.57-37-37s16.57-37,37-37h115.67c20.43,0,37,16.57,37,37s-16.57,37-37,37Z"/><path class="cls-2" d="m152.67,679.93H37c-20.43,0-37-16.57-37-37s16.57-37,37-37h115.67c20.43,0,37,16.57,37,37s-16.57,37-37,37Z"/><path class="cls-2" d="m152.67,845.93H37c-20.43,0-37-16.57-37-37s16.57-37,37-37h115.67c20.43,0,37,16.57,37,37s-16.57,37-37,37Z"/><path class="cls-2" d="m152.67,1011.93H37c-20.43,0-37-16.57-37-37s16.57-37,37-37h115.67c20.43,0,37,16.57,37,37s-16.57,37-37,37Z"/></g><path class="cls-2" d="m677.61,293.79c-47.57.14-92.34,24.59-120.99,66.09-4.5-6.14-9.34-11.95-14.52-17.4-28.01-30.63-66.03-47.83-105.66-47.8-46.25-.36-90.37,21.17-120.99,59.04-31.45,42.38-44.35,97.68-35.29,151.33,16.13,118.3,118.36,213.01,266.78,318.75,3.29,2.37,7.15,3.63,11.09,3.63s7.8-1.26,11.09-3.63c64.28-43.19,124.29-93.53,179.06-150.24,51.22-56.39,80.66-111.47,87.72-168.52,9.03-54.1-4.26-109.8-36.3-152.22-30.85-38.16-75.4-59.72-122-59.04h0Z"/></svg>